<svg xmlns="http://www.w3.org/2000/svg" xmlns:xlink="http://www.w3.org/1999/xlink" version="1.1" x="0px" y="0px" viewBox="0 0 500 500" style="enable-background:new 0 0 500 500;" xml:space="preserve">
<style type="text/css">
	.st0{fill:#094971;}
	.st1{fill:#0C476F;}
	.st2{fill:#205260;}
	.st3{fill:#0E538D;}
	.st4{fill:#662C33;}
	.st5{fill:#FF8B66;}
	.st6{fill:#EF6E4B;}
	.st7{fill:#0D538E;}
	.st8{fill:#D3D3D3;}
	.st9{fill:#1E0F00;}
	.st10{fill:#ADBEC4;}
	.st11{fill:#2B94F3;}
	.st12{fill:#FEBE56;}
	.st13{fill:#457AAA;}
	.st14{fill:#0F538C;}
	.st15{fill:#3F3730;}
	.st16{fill:#CCE9FF;}
	.st17{fill:#07262D;}
	.st18{fill:#96A4AF;}
	.st19{fill:#6097B2;}
</style>
<g id="BACKGROUND">
</g>
<g id="OBJECTS">
	<g>
		<path class="st0" d="M156.6,192.6c0,0-5.8-2.2-8.5-9.1c-2.7-6.9-3.3-16.1-3.3-16.1l2.5,3.2l1.6-9.3l3.3,4.7c0,0,0.8-7.8,1.3-7.5    c0.5,0.3,5.9,4.5,5.9,4.5l1.3-5.4c0,0,4.3,4.8,4.4,5c0.1,0.3,0.8-3.8,0.8-3.8s12.2,19.4,10.2,24.7c-2,5.3-7.5,5-7.5,5L156.6,192.6    z"/>
		<g>
			<path class="st1" d="M128.7,455.1h25.9c1.8-10.3-1.1-20.6-1.1-20.6l-11.8-2c-1.1,6.5-2.4,9.1-4.2,10.4c0,0,0,0,0,0     c-1.3,1-2.9,1.3-4.8,1.9c-2.2,0.8-3.4,2.2-4,3.7C127.5,451.6,128.7,455.1,128.7,455.1z"/>
			<path class="st2" d="M128.7,448.5c6.4,0.8,20.4,2.2,19.6-1.5c-0.7-3.1-6.6-3.9-10.7-4.1c0,0,0,0,0,0c-1.3,1-2.9,1.3-4.8,1.9     C130.4,445.6,129.2,447,128.7,448.5z"/>
		</g>
		<g>
			<path class="st1" d="M215.4,455.1h25.9c0,0,0.8-2.4,0.4-5c-0.3-2.1-1.4-4.3-4.4-5.3c-2.2-0.8-4-1.1-5.4-2.4     c-1.5-1.4-2.7-4.1-3.6-9.9l-11.8,2C216.5,434.5,213.6,444.8,215.4,455.1z"/>
			<path class="st2" d="M241.7,450.1c-0.3-2.1-1.4-4.3-4.4-5.3c-2.2-0.8-4-1.1-5.4-2.4c-3.3,1-7.9,2.9-9.3,5.7     C220.7,452,235.8,451.3,241.7,450.1z"/>
		</g>
		<g>
			<path class="st3" d="M230.2,434.2c0,0-2,6.4-14.9,2c0,0-9.6-72-11.1-73.5c-1.5-1.6-16.7-48.6-16.7-48.6h-4.8     c0,0-15.2,47-16.7,48.6c-1.5,1.6-11.1,73.5-11.1,73.5c-12.9,4.4-14.9-2-14.9-2l6.2-77.6l12.9-80l25.9,2.9l25.9-2.9l3.4,20.9     l0.1,0.8l9.4,58.3L230.2,434.2z"/>
		</g>
		<g>
			<path class="st4" d="M214.6,298.4C205.6,296.1,203,288,203,288l0.7-0.2c0,0.1,2.5,7.5,10.8,9.8L214.6,298.4z"/>
			<path class="st4" d="M187,307c-0.7,0.7-1.6,1.1-2.6,1.1c0,1.9,0,4-0.1,6h-0.8c0.4-8.4-0.5-17-0.5-17.1l0.7-0.1     c0,0.1,0.5,4.6,0.6,10.4c0.9,0,1.6-0.3,2.1-0.8c2.5-2.6,1-10.1,1-10.2l0.7-0.1C188.2,296.5,189.7,304.1,187,307z"/>
		</g>
		<g>
			<path class="st5" d="M256.7,136c-1.2,0.2-4.4,2.3-4.4,2.3c-2.2,2-3.5,3.2-5.1,3.6c-1.6,0.5-1.8,3.5-1.8,3.5s-6.3,2.7-7.5-1.4     c0,0,2.7-5.9,2.8-6.7c0.3-1.5-1.1-3.4-0.1-6.1c1-2.7,1-6.5,1-6.5s1.4-0.7,1.8,0.7c0.4,1.4-0.3,3.6,0.1,4.2     c0.1,0.1,0.2,0.2,0.3,0.3c0,0,0,0,0,0c0.4,0.4,0.8,0.6,1.3,0.5c0,0,0.1,0,0.1,0c1.6-0.4,4.1-3.2,5.1-4.6c1.4-1.9,3.4-4.4,4.2-3.1     c0.8,1.3-1,1.5-3.2,6.3l0.4,0.4c-0.1,0.4,2.7-1.8,4.9-4.3c1.5-1.7,2.2-0.1,2,0.6c-0.2,0.8-1.9,2.3-3,3.5     c-0.7,0.8-1.5,1.7-1.9,2.2l0.3,0.6c4.1-1.8,4.5-3.5,5.6-2.8c1.1,0.7-1.3,3.1-2.6,3.7c-0.6,0.3-1.5,1-2.3,1.7     c3.4-0.7,4.1-2,4.8-1.2C260.2,134.2,257.9,135.7,256.7,136z"/>
			<path class="st6" d="M245.1,134.9c0.7-2.2-1-4.6-1.2-4.9c0.4,0.4,0.8,0.6,1.3,0.5C246.6,133.1,245.1,134.9,245.1,134.9z"/>
		</g>
		<g>
			<path class="st5" d="M62.3,173c1.2-0.2,4.9,0.5,4.9,0.5c2.8,1.1,4.4,1.7,6.1,1.5c1.7-0.2,2.9,2.6,2.9,2.6s6.9,0.2,6.5-4     c0,0-4.7-4.5-5.1-5.2c-0.8-1.3-0.2-3.6-2.2-5.7c-1.9-2.1-3.4-5.6-3.4-5.6s-1.6-0.2-1.4,1.3c0.1,1.5,1.6,3.3,1.4,4     c0,0.1-0.1,0.3-0.1,0.4c0,0,0,0,0,0c-0.2,0.5-0.6,0.8-1,0.9c0,0-0.1,0-0.1,0c-1.7,0.3-5-1.5-6.4-2.4c-2-1.3-4.8-2.9-5-1.4     c-0.3,1.5,1.5,1.1,5.3,4.7l-0.2,0.5c0.3,0.3-3.2-0.7-6.1-2.2c-2-1-2.1,0.7-1.6,1.3c0.4,0.7,2.6,1.4,4.1,2.2c1,0.5,2,1,2.6,1.3     l0,0.7c-4.5-0.1-5.5-1.6-6.2-0.5c-0.7,1.1,2.3,2.4,3.8,2.4c0.6,0,1.7,0.4,2.8,0.8c-3.5,0.6-4.5-0.4-4.9,0.6     C58.4,172.6,61.1,173.2,62.3,173z"/>
			<path class="st6" d="M72.7,167.7c-1.4-1.8-0.8-4.7-0.7-5c-0.2,0.5-0.6,0.8-1,0.9C70.6,166.6,72.7,167.7,72.7,167.7z"/>
		</g>
		<g>
			<path class="st7" d="M247.1,147.8c0,0-0.7,2.5-1.8,6.3c-0.5,1.6-1,3.3-1.6,5.2c-0.9,2.9-1.9,6.2-3,9.4c-0.6,1.8-1.2,3.5-1.8,5.2     c-1.6,4.3-3.2,8.3-4.7,11.1c-0.2,0.4-0.4,0.8-0.6,1.1c-0.6,1-1.4,2.1-2.5,3.3c-1.7,2-4,4.3-6.7,6.7c-1.3,1.2-2.7,2.4-4.1,3.7     c-2.3,2-4.8,4.1-7.2,6.1c-1.5,1.3-3,2.5-4.5,3.6c-7.5,6-13.7,10.6-13.7,10.6l-11.2-22.8c3.2-2.2,9.1-5.8,15.2-9.5     c1.5-0.9,2.9-1.8,4.4-2.6c2.3-1.3,4.5-2.7,6.5-3.9c1.6-0.9,3.1-1.8,4.4-2.6c1.9-1.1,3.5-2.1,4.7-2.8c1.2-0.7,2-1.1,2-1.1     s0.5-1,1.4-2.6c1-1.9,2.5-4.8,4.1-8c0.7-1.4,1.5-2.9,2.3-4.4c1.3-2.4,2.6-4.9,3.9-7.3c0.8-1.5,1.6-3,2.4-4.4c2.2-3.9,4-7,4.9-8.2     C239.9,139.9,245.6,141.8,247.1,147.8z"/>
		</g>
		<g>
			<path class="st7" d="M152.6,202.1l-2,25.4c0,0-7-1.9-15.8-4.5c-1.7-0.5-3.4-1.1-5.2-1.6c-3.1-1-6.3-2.1-9.4-3.1     c-1.7-0.6-3.3-1.2-4.9-1.8c-3.7-1.4-7.1-2.8-9.7-4.2c-1.4-0.7-2.6-1.4-3.4-2.1c-0.3-0.2-0.6-0.5-0.9-0.8     c-2.1-1.8-4.6-4.5-7.3-7.5c-1.1-1.3-2.3-2.6-3.4-4c-2.3-2.7-4.5-5.5-6.6-8.2c-1.1-1.4-2.2-2.8-3.1-4c-3.5-4.7-6-8.1-6-8.1     c0.3-5.9,4.6-7.6,4.6-7.6c1.6,1,5.2,3.8,9.4,7.3c1.3,1,2.6,2.1,3.9,3.2c2.3,1.9,4.5,3.8,6.7,5.6c1.4,1.1,2.7,2.2,3.8,3.2     c1.9,1.6,3.6,3.1,4.7,4c1.1,0.9,1.7,1.5,1.7,1.5s1.1,0.2,2.9,0.4c1.6,0.3,3.8,0.6,6.4,1c1.6,0.2,3.3,0.5,5,0.8     c2.2,0.4,4.5,0.7,6.8,1.1c1.7,0.3,3.3,0.6,5,0.8C142.7,200.2,149.1,201.3,152.6,202.1z"/>
		</g>
		<path class="st8" d="M219.6,282.7c0,0-14,14.6-33,18.3c-16.7,3.2-31.7,3.2-31.7,3.2s-0.9-3.8-2.2-9.8c-0.3-1.5-0.7-3.2-1.1-5    c-0.7-3.2-1.5-6.8-2.3-10.7c-0.3-1.6-0.7-3.3-1.1-5c-0.7-3.1-1.3-6.3-2-9.5c-0.3-1.6-0.7-3.3-1-5c-0.8-4.1-1.6-8.1-2.4-11.9    c-0.3-1.7-0.7-3.4-1-5c-0.9-4.6-1.6-8.7-2.1-12.1c-0.3-2-0.6-3.7-0.7-5.1c-0.1-0.5-0.1-1-0.1-1.4c-0.3-3.5-0.4-6.7-0.4-9.6    c0-1.9,0-3.6,0-5.2c0.1-5.5,0.4-8.9,0.4-8.9c3.9-2.7,31.2,6,31.2,6s20.1-17.3,23.3-16.1c1.8,0.7,3.5,2.3,5.1,4.6    c0.9,1.3,1.8,2.8,2.6,4.5c1.4,2.8,2.8,6.2,4.1,9.9c0.6,1.7,1.2,3.5,1.7,5.4c0.9,3.1,1.8,6.3,2.6,9.6c0.4,1.7,0.8,3.4,1.2,5.1    c0.7,3.2,1.4,6.5,2.1,9.8c0.4,1.7,0.7,3.5,1,5.2c0.6,3,1.1,5.9,1.5,8.7c0.3,1.8,0.6,3.6,0.9,5.3c0.6,3.9,1.1,7.4,1.6,10.6    c0.3,2,0.5,3.7,0.7,5.4C219.2,279.5,219.6,282.7,219.6,282.7z"/>
		<g>
			<path class="st7" d="M205.8,210.9c-0.2-0.6-0.4-1.2-0.6-1.8c-1.3-3.7-2.6-7.1-4.1-9.9c-0.9-1.7-1.7-3.2-2.6-4.5     c-1.6-2.3-3.3-3.9-5.1-4.6c-1.8-0.7-9,4.5-14.9,9.2L205.8,210.9z"/>
			<path class="st7" d="M139,223.7l20.2-20.8c-8-2.2-17.9-4.4-20.2-2.8c0,0-0.3,3.4-0.4,8.9c0,1.6,0,3.3,0,5.2     C138.6,217,138.7,220.2,139,223.7z"/>
		</g>
		<path class="st6" d="M173.9,196c0,0-0.8,6.8,1.7,8.9c0,0-1.3,4.8-5,5.8c-4.3,1.1-6.8-3.5-6.8-3.5s1.1-6.6-1.6-8.3L173.9,196z"/>
		<path class="st5" d="M153.4,189.1c0,0-4.1-2-3.3,1.7c1,4.3,5.3,4.7,5.6,3.1C156,192.4,153.4,189.1,153.4,189.1z"/>
		<path class="st5" d="M175.1,182.1c0,0,2-4.1,3.6-0.6c1.8,4-1.4,7-2.6,5.9C175,186.3,175.1,182.1,175.1,182.1z"/>
		<path class="st5" d="M169,200.7c-6.8,2.3-12.2-0.9-16.7-14.3c-2.3-6.9-0.2-12.3,7.4-14.9c7.7-2.6,12.3,0.6,14.6,7.5    C179.1,193.4,176,198.3,169,200.7z"/>
		<path class="st0" d="M157.7,168.5c-15.3,5.7-6.1,20.1-6.1,20.1l2.2,2c-1-4.1-0.3-6.4-0.3-6.4c-1.1-1.6-1.2-4.6-0.9-6    c1.9-1.6,6.7-4.7,15.5-5.7c0.1,0.1,2.4,2.4,2.6,4.7c0,0,3.5,3.2,5,7l0.3-3.5C176.1,180.7,172.6,163,157.7,168.5z"/>
		<path class="st7" d="M133.4,215.4l5.4,8.7l5.3-8.7c0,0-0.4-13.1-0.4-12.7c0,0.4,1.5-3-2.1-3.2s-7.3,0.6-7.3,0.6s-0.8,5.6-0.8,5.8    C133.3,206.3,133.4,215.4,133.4,215.4z"/>
		<path class="st7" d="M195.9,202.5c0,0,10.1,9.1,10.1,9.2s2.2-9.8,2.2-9.8l-3.8-9.3l-7.8-3.3c0,0-3.7,0.3-5.6,1.3    c-1.9,1,1.4,4.6,1.4,4.6L195.9,202.5z"/>
	</g>
	<g>
		<path class="st9" d="M345.3,181c0,0,1.9-3.9-3.5-3.6s-19.9,1.2-15.5,20.8l13.3,8.1l4.6-1.8l8.8-5c0,0,3.4-10.3,0.9-14.3    S346.8,177.2,345.3,181z"/>
		<path class="st5" d="M279.6,384.8c0,0,15,40,15.9,52.7c0,0,3.8,3,10.2,0.3c0,0,0.2-38.3-6.1-50.1    C293.4,375.9,279.6,384.8,279.6,384.8z"/>
		<g>
			<path class="st8" d="M276.4,455.1H308c1.3-5-0.7-9.2-0.7-9.2s1.4-5.5,0.8-7.3c-0.5-1.8-7-4-8.8-2.1c-1.2,1.3-1.3,3-1.2,3.9     c-0.9-5-3.2-5.4-5.4-3.5c-2.3,2,0.5,1,0.1,4.3c0,0.2-0.1,0.5-0.2,0.7c-0.2,0.5-0.5,0.9-0.9,1.3c-0.3,0.3-0.8,0.7-1.3,0.9     c-0.2,0.2-0.5,0.3-0.8,0.4c-0.5,0.2-1.1,0.4-1.7,0.6c-0.9,0.3-1.9,0.5-3,0.6c-4.3,0.4-6.1,0.7-8.1,3c-2,2.2-0.7,4-0.7,4     L276.4,455.1z"/>
			<g>
				<path class="st10" d="M292.7,441.9c-0.2,0.5-0.5,0.9-0.9,1.3c2.8-1.1,4.4,0.9,4.4,0.9l0.8-1C295,440.6,292.8,441.8,292.7,441.9z      "/>
				<path class="st10" d="M293.3,446.4l1.1-0.7c-0.6-1.8-1.8-2.4-2.6-2.5c-0.3,0.3-0.8,0.7-1.3,0.9      C292.7,444.5,293.3,446.4,293.3,446.4z"/>
				<path class="st10" d="M290.2,447.6l1.2-0.6c-0.3-1.4-1-2.1-1.7-2.5c-0.5,0.2-1.1,0.4-1.7,0.6      C289.8,445.9,290.2,447.6,290.2,447.6z"/>
			</g>
		</g>
		<path class="st8" d="M344.2,447.5c0.9-0.5,1.7-1.5,2.4-2.7c0,0,0.6-3.7,0-7.7c-0.6-3.9,1.1-7.1,6.6-8.3c5.4-1.2,8.6,1.4,7.4,12.3    c0,0,0,0,0,0c0.8,4.5,1,9.7-0.9,14h-16.6C343.1,455.1,340.5,449.5,344.2,447.5z"/>
		<path class="st5" d="M329.6,389c0,0,0,10.8,6.1,21.9c6.2,11.3,13.9,26.8,13.9,26.8s5.1,5,8.4-3.3c0,0-2.3-28.8-7.6-39.4    C345.2,384.6,329.6,389,329.6,389z"/>
		<g>
			<path class="st8" d="M356.8,438.8c0,0,1.5-3.1,0.2-4.5c-1.4-1.3-3,1.2-5.3,0.6c-2.3-0.6-2.9-2.2-3.5,0     C347.6,437.2,348.3,444.4,356.8,438.8z"/>
			<path class="st10" d="M348,438.7c0,0,6.3,2.2,9.5,0l-0.8,2.7c0,0-6.8,0.7-7.8-1L348,438.7z"/>
			<path class="st10" d="M348.1,442.1c0,0,5.8-0.8,8.5,0.6v1.3c0,0-7.5-1.8-9.9,0L348.1,442.1z"/>
			<path class="st10" d="M356.9,446.8c0,0-1.1-2.7-4.6-2.9c-3.5-0.2-5.9,1.7-5.9,1.7S352,443.4,356.9,446.8z"/>
		</g>
		<g>
			<path class="st0" d="M355.3,386.2c0,0-0.6,1.4-1.9,3.1c-0.2,0.2-0.3,0.4-0.5,0.6c-3.5,4.3-11.1,10-25,4.4c0,0-0.4-0.8-0.8-2.1     c-0.1-0.2-0.2-0.4-0.3-0.7c-0.9-2.3-2-5.5-2.5-8.4c-3.6-20.2-5-34.8-6.9-43.1c-5.3,12.9-17.3,37.9-17.9,38.9     c-0.7,1.3,2,9.9,2,9.9c-10,3.3-24.3-0.9-24.3-0.9s-4.3-12.7-5-21.8c-0.5-6.9,17-45.8,25.2-63.6c0.2-0.5,0.4-0.9,0.6-1.3     c2.2-4.7,3.5-7.6,3.5-7.6l14,4.7l34,15.3c0,0,0.6,0.7,1.2,7.7c0,0.2,0,0.4,0,0.6c0.3,4.2,0.6,10.4,0.8,19.8v0.6     c0,2,0.1,4.2,0.1,6.6v0.6c0,5.4,0.1,11.6,0,18.7c0,0.2,0,0.4,0,0.6c0,2.2,0,4.5-0.1,6.9c0,2.2,1.7,6.3,2.8,8.7     c0.1,0.2,0.2,0.4,0.3,0.6C355.1,385.7,355.3,386.2,355.3,386.2z"/>
		</g>
		<g>
			<path class="st1" d="M353.4,389.3c-0.2,0.2-0.3,0.4-0.5,0.6c-1.6-2.6-4-7.1-4.5-10.2c-0.8-4.4-1.2-21.8,0-40.1     c1.2-17.7-2.7-35.1-2.8-35.3l0.7-0.2c0,0.2,4,17.7,2.8,35.5c-1.2,18.2-0.8,35.5,0,39.9C349.7,382.5,351.9,386.7,353.4,389.3z"/>
		</g>
		<g>
			<path class="st1" d="M348.2,319.6c-10.9-3.9-13.6-12.8-13.7-12.9l0.7-0.2c0,0.1,2.7,8.6,13.2,12.4L348.2,319.6z"/>
		</g>
		<g>
			<path class="st1" d="M308.1,299.7c-0.2,0.2-0.6,0.2-1.6,0.3c-2.1,0.1-6,0.4-9,2.8c0.2-0.5,0.4-0.9,0.6-1.3c3-1.8,6.4-2,8.4-2.2     c0.5,0,1.1-0.1,1.2-0.1L308.1,299.7z"/>
		</g>
		<g>
			<path class="st1" d="M317.1,340.3c-7.9-15.8,2.3-36.9,2.4-37.1l0.7,0.3c-0.1,0.2-10.2,21.1-2.4,36.5L317.1,340.3z"/>
		</g>
		<g>
			<path class="st1" d="M315.6,324.9c-0.7,0-1.2-0.2-1.2-0.2l0.2-0.7c0,0,1.5,0.5,2.8-0.4c1.1-0.7,1.9-2.2,2.1-4.4     c0.8-6.7,5.9-14.9,6.1-15.2l0.6,0.4c-0.1,0.1-5.2,8.4-6,14.9c-0.3,2.4-1.1,4.1-2.5,5C317,324.8,316.2,324.9,315.6,324.9z"/>
		</g>
		<g>
			<path class="st8" d="M374.6,247.4c-2.5,27.1-12.3,53.4-15.7,64.3c-0.7,2.4-1.2,3.7-1.2,3.7s-53.2-6.9-59.5-21.3     c0,0,0.1-0.4,0.3-1.1c1.6-6.5,9.5-33,10.4-54.7c1-24.1,9.1-32.6,14-31.5c0,0,11,8.7,18.1,8.7c7,0,23.9-7.7,23.9-7.7     S377.6,214.4,374.6,247.4z"/>
		</g>
		<g>
			<path class="st11" d="M358.9,311.7c-0.7,2.4-1.2,3.7-1.2,3.7s-53.2-6.9-59.5-21.3c0,0,0.1-0.4,0.3-1.1     C301.9,298.6,342.7,312.3,358.9,311.7z"/>
		</g>
		<path class="st8" d="M277.5,151.3c0,0,1.2-2.8,6.5-2.8c4,0,5.6,2.2,5.6,2.2c2.4,7,5,34,5.9,34.9c0.5,0.5,30.5,23.4,30.5,23.4    c-16.2,0.3-16.8,27.2-16.8,27.2c-0.5-6.6-23.1-23.1-28.8-33.9C274.9,192.3,272.4,167.7,277.5,151.3z"/>
		<circle class="st9" cx="341" cy="202.3" r="3.2"/>
		<path class="st8" d="M406.8,153.2c0,0-1.2-2.8-6.5-2.8c-4,0-5.6,2.2-5.6,2.2c-2.4,7-5,34-5.9,34.9c-0.5,0.5-30.5,23.4-30.5,23.4    c-0.7,18.8,16.8,27.2,16.8,27.2c0.5-6.6,23.1-23.1,28.8-33.9C409.3,194.2,411.9,169.6,406.8,153.2z"/>
		<path class="st11" d="M334.2,215.1c0,0-2.9,1.2-3.5,2.4c-0.6,1.3,1.6,6.5,5.9,6.9c4.3,0.4,12.5-4.6,12.1-6.2    C348.5,216.6,342.3,214.5,334.2,215.1z"/>
		<path class="st6" d="M333.8,209c0,0,1.6,6.6-0.8,9.2c0,0,4,6.4,13-0.1c0,0-1.7-4.3,0-7.2L333.8,209z"/>
		<path class="st5" d="M351.5,197.2c0,0,3.4-3.4,3.8,0.6c0.5,4.6-3.7,6.4-4.5,5C350,201.2,351.5,197.2,351.5,197.2z"/>
		<path class="st5" d="M327.7,197.4c0,0-3.4-3.4-3.8,0.6c-0.5,4.6,3.7,6.4,4.5,5C329.2,201.5,327.7,197.4,327.7,197.4z"/>
		<path class="st5" d="M340,213.8c7.5,0,11.8-4.9,11.8-19.7c0-7.6-3.9-12.3-12.3-12.3c-8.4,0-12,4.7-12,12.3    C327.4,210,332.2,213.8,340,213.8z"/>
		<path class="st9" d="M348.4,185.4c0,0-5.2-0.4-16.8-1.2c0,0-4.2,4.4-3.9,15.2c0,0-6.7-19.5,12.9-19.5c19.7,0,10.8,19,10.8,19    S352.1,189.1,348.4,185.4z"/>
		<path class="st12" d="M284.5,147.8c0,0-5.6,0.3-5.6,2c0,1.8,0,3.9,4.7,3.7c4.7-0.2,4.7-2.1,4.8-3.8    C288.5,147.9,286,147.6,284.5,147.8z"/>
		<path class="st12" d="M401.7,148.8c0,0-5.6,0-5.7,1.8c-0.1,1.8-0.2,3.9,4.5,3.9c4.7,0,4.8-1.8,5-3.6    C405.7,149.2,403.3,148.7,401.7,148.8z"/>
		<g>
			<path class="st5" d="M275.7,136.6c0.8,0.9,2.1,4.5,2.1,4.5c0.6,3,0.9,4.6,1.9,6c1,1.4,0.5,3.8,0.5,3.8s4,2.1,7.4-0.5     c0,0-0.4-2.4,0-3.1c0.7-1.4,2.9-2.1,3.7-4.8c0.8-2.7,3.1-5.8,3.1-5.8s-0.7-1.4-1.9-0.6c-1.2,0.9-2,3.1-2.6,3.3     c-0.1,0-0.3,0.1-0.4,0.1c0,0,0,0,0,0c-0.5,0.1-1,0-1.3-0.3c0,0-0.1,0-0.1-0.1c-1.1-1.3-1.4-5-1.3-6.7c0.1-2.3,0-5.6-1.4-5     c-1.4,0.5-0.1,1.8-1.2,7l-0.5,0.1c-0.1,0.4-1.1-3.1-1.3-6.4c-0.2-2.3-1.6-1.4-2-0.7c-0.3,0.7,0.2,3,0.3,4.6     c0.1,1.1,0.2,2.2,0.2,2.9l-0.6,0.3c-2.2-3.9-1.5-5.5-2.8-5.6c-1.3-0.1-0.8,3.2-0.1,4.5c0.3,0.5,0.6,1.7,0.8,2.8     c-2.3-2.7-2-4-3.1-3.9C273.9,133.1,274.9,135.7,275.7,136.6z"/>
			<path class="st6" d="M285.6,142.7c0.8-2.1,3.6-3.1,3.9-3.2c-0.5,0.1-1,0-1.3-0.3C285.5,140.4,285.6,142.7,285.6,142.7z"/>
		</g>
		<g>
			<path class="st5" d="M408.8,137.3c-0.8,0.9-2.1,4.5-2.1,4.5c-0.6,3-0.9,4.6-1.9,6c-1,1.4-0.5,3.8-0.5,3.8s-4,2.1-7.4-0.5     c0,0,0.4-2.4,0-3.1c-0.7-1.4-2.9-2.1-3.7-4.8c-0.8-2.7-3.1-5.8-3.1-5.8s0.7-1.4,1.9-0.6c1.2,0.9,2,3.1,2.6,3.3     c0.1,0,0.3,0.1,0.4,0.1c0,0,0,0,0,0c0.5,0.1,1,0,1.3-0.3c0,0,0.1,0,0.1-0.1c1.1-1.3,1.4-5,1.3-6.7c-0.1-2.3,0-5.6,1.4-5     c1.4,0.5,0.1,1.8,1.2,7l0.5,0.1c0.1,0.4,1.1-3.1,1.3-6.4c0.2-2.3,1.6-1.4,2-0.7c0.3,0.7-0.2,3-0.3,4.6c-0.1,1.1-0.2,2.2-0.2,2.9     l0.6,0.3c2.2-3.9,1.5-5.5,2.8-5.6c1.3-0.1,0.8,3.2,0.1,4.5c-0.3,0.5-0.6,1.7-0.8,2.8c2.3-2.7,2-4,3.1-3.9     C410.5,133.8,409.6,136.4,408.8,137.3z"/>
			<path class="st6" d="M398.8,143.5c-0.8-2.1-3.6-3.1-3.9-3.2c0.5,0.1,1,0,1.3-0.3C399,141.1,398.8,143.5,398.8,143.5z"/>
		</g>
		<path class="st9" d="M326.4,189.4c0,0,16,0.7,19-4.5c3-5.2-8.8-3.8-8.8-3.8s-3.4,1-3.7,1s-4.7,1.8-4.7,1.8L326.4,189.4z"/>
	</g>
	<g>
		<path class="st1" d="M112,251.6c-0.1-1.6,6-35,0.2-42.9c-7.7-10.5-19.7-5.8-19.7-5.8s-14.3,0-13.6,21.3s6.4,36-6.1,51.7    c-12.5,15.7-0.7,28.2,10.4,29.2c11.1,0.9,18.9-7.6,18.9-7.6S113.4,267.5,112,251.6z"/>
		<path class="st5" d="M123.1,334c0,0-5.4,17.1-18.7,40c0,0,2.3,24.3-35.3,69.3l-5.2-2.9c0,0,19.3-45.2,22.5-58.6    c3.1-13.4,1.8-31.3,11.9-59.3L123.1,334z"/>
		<path class="st9" d="M100.2,299.6c0,0,17.8-7.2,17.8-7.2c3.1,9.9,11.1,17,10.4,32.5c-0.3,7.7-5.3,15.5-5.3,15.5    c-21-0.8-28.2-9.6-28.2-9.6l3.2-14.8C98.1,316,100.3,306,100.2,299.6z"/>
		<path class="st5" d="M142.4,322.5c0,0,0.6,17.9-4.3,43.9c0,0,10.2,22.1-10.2,77.1l-5.8-1c0,0,3.1-49.1,1.6-62.8    c-1.5-13.7-9.4-25.7-8.5-59.8L142.4,322.5z"/>
		<path class="st9" d="M100.2,299.6l7,11.9l1.7,2.9l3.6,6.2l2.3,16.5l0.1,0.7l0.1,0.4c18-2.1,27.7,3.5,27.7,3.5l0.2-1.5l0-0.5    c0-0.1,0.1-0.2,0.1-0.3c1.7-4.9,4-18.2,1.2-27.3c-4.6-14.8-12.8-13.4-19-21.7C125.3,290.5,100.2,299.6,100.2,299.6z"/>
		<path class="st0" d="M131.5,438.4c0,0-2.3,5.1-1.6,8.6c0.4,2.1,2.7,4.8,0.9,8.1h-14c0,0-1.6-3.8,1.7-7.3    c1.8-1.9,3.2-10.9,3.2-10.9c1.6,0.3,1.2,1.5,1.2,1.5s0-4.2,3.5-3.7c4.3,0.7,3.3,4.4,3.3,4.4S130,437.8,131.5,438.4z"/>
		<path class="st0" d="M47.1,455.1h23.6c0,0,0.7-5-0.4-6.7c-1.5-2.4,3.7-7.8,3.7-7.8s-3.2-3.9-5.9-1.7c0,0,0.3-4.9-3.3-4.9    c0,0-3.3,8.3-7,11.3c-0.1,0.1-0.2,0.1-0.3,0.2c-2.8,2-7.9,2.5-9.8,5.3C47,451.9,46.7,453.2,47.1,455.1z"/>
		<g>
			<path class="st9" d="M113.9,337.4l0.2,0.7c0.3-0.1,0.6-0.2,0.9-0.3c14.8-4.1,25,0.7,27.9,2.4l0-0.5c0-0.1,0.1-0.2,0.1-0.3     c-1.3-0.7-3.8-1.9-7.3-2.8c0.2-1.4,1.2-10.9,0-21.5c-1.3-11.5-12.5-18.4-12.7-18.5l-0.4,0.7c0.1,0,8,5,11.2,13.3     c-10.4-0.1-14.6-13.2-14.6-13.3l-0.7,0.2c0,0.1,4.4,13.8,15.5,13.8h0.1c0.4,1.2,0.7,2.5,0.9,3.9c1.2,10.3,0.2,19.6,0,21.2     c-5-1.1-11.9-1.6-20.1,0.7C114.6,337.2,114.3,337.3,113.9,337.4z"/>
			<path class="st9" d="M106.3,303c0,0.1,1,10.3,5.7,18.1l-0.6,0.4c-4.8-7.9-5.8-18.3-5.9-18.4L106.3,303z"/>
		</g>
		<path class="st5" d="M83.8,244.3c5-0.2,5.2,4.7,2.6,9.6c-2.5,4.8-26.8,26.7-30.6,22.6c-1.4-1.6,2.7-8.9,2.7-8.9s6.9-6.1,15.9-16.3    C78.6,246.6,81.2,244.5,83.8,244.3z"/>
		<path class="st5" d="M52.6,268.6c-1.4-7.1,0.6-26.1,3.6-34.4l4.2,1c0,0-0.2,20.9,1.7,27.7c1.9,6.7,0.7,11.7-3.7,13.7    C54,278.5,52.8,270.1,52.6,268.6z"/>
		<g>
			<path class="st5" d="M65.2,229.6c-4.5,3-2.9,7.3-7.4,8.2c-0.9,0.2-1.7,0-2.2-0.4c-1.1-0.7-1.5-2-1.3-3.3c0.5-3,0.3-6.9,0.1-8.9     c-0.3-2.3,0.7-1.5,0.7-1.5c0-0.2-0.1-0.4-0.1-0.6c-0.4-1.5-0.9-2.5,0.3-2.1c1.3,0.5,2.5,4.6,2.5,4.6c-0.3-6.3-1.9-7-0.7-6.7     c1.6,0.4,2.7,5.9,2.7,6.1c0.5-3.8-0.3-5.8,0.7-5.1c1,0.7,1.1,7.5,1.1,10c0,0.6,0,0.9,0,0.9C64.8,228.1,65.2,229.6,65.2,229.6z"/>
			<path class="st6" d="M61.3,229.9c0,0.6,0,0.9,0,0.9s-1.8,0.2-2.8,2.4C58.5,233.2,58.4,230.5,61.3,229.9z"/>
			<path class="st6" d="M56.1,228c-0.1-0.5-0.5-3.6-1.2-4.4c0-0.2-0.1-0.4-0.1-0.6C55.9,223.1,56.1,227.4,56.1,228z"/>
		</g>
		<path class="st13" d="M125.3,290.5c0,0-4.9-13-2.4-20.4c4.3-12.7,2-23.4-2.6-26.5c-7.3-5.1-22.7,0.7-22.7,0.7s-14.9-1.6-16.5,3    s-5.1,22.9,2,32.7c7.1,9.8,17,25,17,25S121.3,303,125.3,290.5z"/>
		<path class="st6" d="M99.9,227.3c0,0-1,8.5,2.1,16.2c0,0-4.5,6.6-8.8,2.3c0,0-0.4-7.8-5.2-16.6C84.9,223.3,99.9,227.3,99.9,227.3z    "/>
		<path class="st5" d="M106.8,227.6c0,0,3.8-2.4,3.4,1.3c-0.5,4.3-4.7,5.1-5.1,3.6C104.6,231,106.8,227.6,106.8,227.6z"/>
		<path class="st5" d="M85.1,222.9c0,0-2.4-3.8-3.6-0.3c-1.4,4.1,2,6.6,3.1,5.5C85.6,227,85.1,222.9,85.1,222.9z"/>
		<path class="st5" d="M92.9,240.3c6.9,1.5,11.7-2.1,14.7-15.5c1.6-6.9-1-12-8.7-13.7c-7.7-1.7-11.9,1.8-13.4,8.7    C82.3,234.3,85.8,238.8,92.9,240.3z"/>
		<path class="st0" d="M106.2,230c0,0,0.9-3.3,1.2-7c0.4-4.9-2.6-9.5-7.3-11c-1.6-0.5-3.4-0.7-5.5-0.6c-3.1,0.2-5.8,2.3-7,5.1    c-1,2.3-2.2,5.5-3.1,9.2c0,0-1.2-4-0.1-10.2c1.1-6.2,6.2-11.3,17.9-8.8C112.4,208.9,116.7,221,106.2,230z"/>
		<path class="st0" d="M91.6,209.9c0,0,1.3,9.5,14.3,10.7c0,0-7.9-2.8-7.9-8.3c0,0,3.1,7.1,10.6,6.3    C108.6,218.6,109.3,207.1,91.6,209.9z"/>
		<path class="st5" d="M131.2,246.6c-6.3,1.9-10.6,12.1-9.3,13.3c1.3,1.2,31.2,6.9,31.2,6.9l-18.2,26.2l3.1,4.5    c0,0,28.4-25.1,28.2-33.7C166,255.3,131.2,246.6,131.2,246.6z"/>
		<path class="st5" d="M134.8,292.3c0,0-4,0.4-6.4,1.1c-2.5,0.6-5.8,1.2-5.9,1.8c-0.1,0.5,5.5,0,5.5,0s-4.6,1.9-4.7,2.6    c-0.1,0.7,5.8-0.5,5.8-0.5s-3.7,2.3-3.5,2.9c0.2,0.6,4.8-0.9,4.8-0.9s-0.9,2.2-1.7,3.2c0,0,0.9,0.5,2.7-1.5c1.8-2,4.7-1.4,7-3.1    C140.6,295.9,136.9,292,134.8,292.3z"/>
		<path class="st14" d="M130.2,449.9c0,0-3.8-5-11.7-1c0,0-0.3,3.5,3.3,2.8C125.5,451.1,127.7,453.8,130.2,449.9z"/>
		<path class="st14" d="M47.8,450.8c5,2.4,15.4-3.3,15.4-3.3c-1.7,0.3-4.1-1-5.6-2C54.8,447.6,49.8,448.1,47.8,450.8z"/>
		<path class="st13" d="M91.2,244.3c0,0-7.4-1.7-9.7-0.5s-17.9,17.9-17.9,17.9s-0.3,7.4,3.6,10.7l16.3-11.7L91.2,244.3z"/>
		<path class="st13" d="M114.4,241.6c0,0,9.3,1.5,22.3,5c13,3.5,22.5,8.9,22.5,8.9s-6.3,11.6-8.1,12.2l-36.7-7.1V241.6z"/>
		<path class="st9" d="M129.5,326.1"/>
	</g>
	<g>
		<path class="st12" d="M425.2,226.1c0,0,1.4,13,3.7,15.1c2.5,2.2,4.3,0.2,4.3,0.2s-2,5.2-4.9,3.8c-2.9-1.5-5-5.5-5-5.5l-1.5-5.3    L425.2,226.1"/>
		<path class="st12" d="M400.3,216.3c0,0-12.2,6.2-10.9,16.7c1.3,10.5,5.1,40.1,4.5,41c-0.7,0.8,9.6,8.5,28.1,1.9    c18.5-6.5,0.4-34.2,3.5-52.6c3.1-18.4-19.1-8.2-19.1-8.2L400.3,216.3z"/>
		<path class="st12" d="M412.7,201.6c0,0,2.7-11.1,14.7-5.8c12,5.3-8,37.4-5.4,46c2.6,8.6-7,6.3-9.3,5.6c-2.3-0.8,0-44.2,0-44.2    V201.6z"/>
		<path class="st5" d="M368.2,316.2c4.3-14.8,12.7-25.7,12.7-25.7l12.7,2.1l0.1-0.2l1,0.2l0.1,0l0,0l13.1,2.6c0,0,5.7,10.5,9.4,25.4    c3.8,14.9-7.5,52.5-7.5,52.5s6.3,17.6-8.3,63.6h-6.9c0,0,2.6-57.3,1.6-63.6c-0.9-5.5-2-25.6-1.4-40.9c-0.8,0.2-1.6,0.2-2.5,0.2    c0,0,0,0,0,0c0,15.4-1.7,35.4-2.8,40.8c-1.2,6.3-0.6,63.7-0.6,63.7l-6.9-0.2c-13.1-46.5-6.2-63.9-6.2-63.9S364,330.9,368.2,316.2z    "/>
		<path class="st15" d="M379.6,427c2.3,0.3,6.2,0.7,9.4,0.4c-0.1-16.6-0.3-49.5,0.7-54.2c1-5.4,2.8-25.4,2.8-40.8c0,0,0,0,0,0    c0.9,0.1,1.7,0,2.5-0.2c-0.6,15.4,0.5,35.4,1.4,40.9c0.7,4.7-0.5,37.9-1.2,54.4c2.2,0.6,5.5,1.2,9.1,0.7    c11.3-39.7,5.8-55.1,5.8-55.1s11.3-37.6,7.5-52.5c-3.8-14.9-9.4-25.4-9.4-25.4l-13.1-2.6l0,0l-0.1,0l-1-0.2l-0.1,0.2l-12.7-2.1    c0,0-8.4,10.9-12.7,25.7c-4.3,14.8,7.8,56.6,7.8,56.6S370,387.8,379.6,427z"/>
		<path class="st16" d="M427.4,246.3c-0.4-7.8-24.8-4.4-24.8-4.4s-15.8-11.1-20.7-7.5c-1.7,1.3-2.5,8.7-2.8,17.8    c-1.8,3.3-3.4,8.2-0.2,12.6c0.1,13.3,0.7,26,0.7,26c13.8,10.5,28.5,5.3,28.5,5.3s5.8-12.4,11.1-24.9c3.4-2.7,4.1-6.7,4-10    C425.7,254.5,427.5,248.8,427.4,246.3z"/>
		<path class="st12" d="M424.4,206.6c-7.1-12.1-25-10.6-31.1-2.7c-7.4,9.5-3.5,31.7-3.5,31.7s17-14.2,27.2,5.2    C417.1,240.7,432.3,220.1,424.4,206.6z"/>
		<g>
			<path class="st1" d="M379.1,442.5c0.4-2.9-0.6-4.9,0.1-6.3c1.2-2.1,2.4,0.6,2.4,0.6c0.1-3.3,5.6-3.3,6.1-1.8     c0.1,0.4,0.3,0.8,0.5,1.1c0.3-0.8,0.9-1.6,1.7-1.1c2.9,1.8-0.7,6.3,1.9,9.6c3.4,4.2,1.3,10.5,1.3,10.5h-16.2     C375,446.2,378.6,445.4,379.1,442.5z"/>
			<path class="st2" d="M389.1,441.5c0,0-3.8-2-8.9,0.7l1-1.8c0,0,3.4-2.1,7.5-0.5L389.1,441.5z"/>
			<path class="st2" d="M389.7,444.5c0,0-5.5-1.9-10.5,0.8l1-1.9c0,0,4.8-2.1,8.9-0.5L389.7,444.5z"/>
		</g>
		<g>
			<path class="st1" d="M405,442.5c-0.4-2.9,0.6-4.9-0.1-6.3c-1.2-2.1-2.4,0.6-2.4,0.6c-0.1-3.3-5.6-3.3-6.1-1.8     c-0.1,0.4-0.3,0.8-0.5,1.1c-0.3-0.8-0.9-1.6-1.7-1.1c-2.9,1.8,0.7,6.3-1.9,9.6c-3.4,4.2-1.3,10.5-1.3,10.5h16.2     C409.1,446.2,405.4,445.4,405,442.5z"/>
			<path class="st2" d="M395,441.5c0,0,3.8-2,8.9,0.7l-1-1.8c0,0-3.4-2.1-7.4-0.5L395,441.5z"/>
			<path class="st2" d="M394.3,444.5c0,0,5.5-1.9,10.5,0.8l-1-1.9c0,0-4.8-2.1-8.9-0.5L394.3,444.5z"/>
		</g>
		<path class="st6" d="M401.4,224.5c0,0,0.7,8.5-2.8,16.1c0,0,2.9,5.3,10.7,2.1c0,0-1.3-7.3,3.8-15.9    C416.6,221.1,401.4,224.5,401.4,224.5z"/>
		<path class="st5" d="M418.6,220.5c0,0,3.7-2.5,3.4,1.2c-0.3,4.3-4.5,5.3-5,3.8C416.6,224,418.6,220.5,418.6,220.5z"/>
		<path class="st5" d="M396.8,216.7c0,0-2.5-3.7-3.6-0.1c-1.2,4.1,2.3,6.5,3.3,5.3C397.4,220.7,396.8,216.7,396.8,216.7z"/>
		<path class="st5" d="M405.2,233.8c6.9,1.3,11.7-2.5,14.2-16c1.3-7-1.5-11.9-9.2-13.4c-7.7-1.4-11.8,2.2-13.1,9.2    C394.4,228.1,398.1,232.5,405.2,233.8z"/>
		<g>
			<path class="st12" d="M402.8,212.3c0.1,0.1,0.3,0.1,0.4,0c1.1-0.8,2.8-0.5,2.8-0.5c0.2,0,0.4-0.1,0.4-0.3c0-0.2-0.1-0.4-0.3-0.4     c-0.1,0-2-0.4-3.4,0.6C402.6,211.9,402.6,212.1,402.8,212.3C402.7,212.3,402.8,212.3,402.8,212.3z"/>
		</g>
		<path class="st12" d="M396.3,219c0,0-2.9-8.4,2.3-15.3c5.2-6.9,19.3-1.8,21.9,3.5c2.6,5.3-2.5,16-2.5,16s3.9-14.2-3.9-16.5    c0,0-1,3.6-7.1,6.1c-6,2.5-9.6,2.1-9.6,2.1L396.3,219z"/>
		<path class="st6" d="M421.1,241.8c0,0,8.9,0.2,30.6,22c3,3-0.4,12.5-9.4,6.7c-9.9-6.5-16.5-13.1-18.6-10.7    C423.7,259.8,418.5,247.3,421.1,241.8z"/>
		<path class="st5" d="M453,262.6c-0.1-7.3-5.8-25.5-10.3-33l-3.9,1.8c0,0,4.3,20.5,3.8,27.4c-0.6,7,1.6,11.7,6.3,12.7    C453.6,272.5,453,264.1,453,262.6z"/>
		<g>
			<path class="st5" d="M435.6,220.7c2.8,4.7-0.5,7.9,3.2,10.6c2.3,1.7,4.5-0.7,4.5-0.7c0.6-3,2.8-7.3,4-9.2     c1.2-1.9,0.1-1.7,0.1-1.7c0.1-0.2,0.3-0.3,0.4-0.5c1-1.2,1.8-1.9,0.7-2c-1.3-0.1-4.2,3.1-4.2,3.1c3-5.6,4.7-5.5,3.5-5.7     c-1.6-0.3-5,4.2-5.1,4.3c1.2-3.6,2.7-5.1,1.6-5c-1.2,0.2-4.2,6.3-5.2,8.6c-0.2,0.5-0.4,0.8-0.4,0.8     C436.6,219.6,435.6,220.7,435.6,220.7z"/>
			<path class="st6" d="M439,222.7c-0.2,0.5-0.4,0.8-0.4,0.8s1.6,1,1.5,3.4C440.1,226.9,441.4,224.5,439,222.7z"/>
			<path class="st6" d="M444.6,223.2c0.3-0.4,1.9-3,2.9-3.4c0.1-0.2,0.3-0.3,0.4-0.5C446.8,218.8,444.8,222.7,444.6,223.2z"/>
		</g>
		<path class="st6" d="M384.9,233.8c0,0-8.8-1.9-34.6,15.1c-3.6,2.3-2.2,12.4,7.9,8.5c11-4.3,19.4-9.5,20.9-6.7    C379.1,250.6,386.3,239.7,384.9,233.8z"/>
		<path class="st5" d="M349.3,247.3c1.6-7.1,10.9-23.8,16.9-30.2l3.4,2.6c0,0-8.5,19.2-9.3,26.1c-0.9,6.9-4,11.1-8.8,11.1    C346.7,257,349,248.8,349.3,247.3z"/>
		<g>
			<path class="st5" d="M374.9,210c-3.7,4-1.1,7.8-5.3,9.8c-2.6,1.2-4.3-1.6-4.3-1.6c0-3.1-1.3-7.7-2.1-9.9     c-0.8-2.1,0.3-1.7,0.3-1.7c-0.1-0.2-0.2-0.4-0.3-0.5c-0.7-1.4-1.4-2.2-0.2-2.1c1.3,0.2,3.5,3.9,3.5,3.9c-1.8-6.1-3.5-6.4-2.2-6.3     c1.7,0.1,4,5.1,4.1,5.2c-0.4-3.8-1.6-5.6-0.5-5.2c1.1,0.4,2.8,7,3.4,9.5c0.1,0.6,0.2,0.9,0.2,0.9     C374.2,208.6,374.9,210,374.9,210z"/>
			<path class="st6" d="M371.2,211.2c0.1,0.6,0.2,0.9,0.2,0.9s-1.7,0.6-2.1,3C369.3,215,368.5,212.5,371.2,211.2z"/>
			<path class="st6" d="M365.7,210.6c-0.2-0.5-1.3-3.4-2.1-4c-0.1-0.2-0.2-0.4-0.3-0.5C364.4,205.8,365.5,210,365.7,210.6z"/>
		</g>
		<path class="st17" d="M391.8,444.6c0,0,3.2,4.1,1.9,10.5H391C391,455.1,390.3,449.3,391.8,444.6z"/>
	</g>
	<g>
		<path class="st12" d="M273.6,223.5c0,0,4.6-3.5,1-13.5c0,0-0.2-8.3-10.3-14.3c-10-6-22.7,2.5-25.3,8.9c-2.6,6.4,3.8,1.5,3.8,1.5    s-1,4.8-0.6,7.3c0,0-3,6.3,1.1,8C247.4,223.1,273.6,223.5,273.6,223.5z"/>
		<g>
			<path class="st5" d="M285.7,435.8l-6.7,1.6c0,0-10.5-56.4-12.9-62.3c-2.1-5.1-11-24.8-13.9-39.9c-0.1,0.1-1.1-0.1-2.3-0.3h0     c-0.3-0.1-0.6-0.1-1-0.2c-0.3-0.1-0.6-0.1-1-0.2c-0.3,15-3.5,33.6-4.5,38.8c-1.2,6.3-0.6,63.7-0.6,63.7l-6.9-0.2     c-13.1-46.5-6.2-63.9-6.2-63.9s-12-41.8-7.8-56.6c1.4-4.9,3.2-9.4,4.8-13.1c0.1-0.3,0.3-0.6,0.4-0.9c3.2-7,6.1-11.3,6.1-11.3     l14.1,1.8l0.1-0.2l0.4,0.1v4.4l1.8-0.1l0.4,0h0l5.8-0.3l0.8,0l5.1-0.3c0,0,3.1,4.9,7.4,12.7c0.2,0.3,0.3,0.6,0.5,0.9     c1.5,2.8,3.3,6,5,9.4c7,13.7,4.6,52.8,4.6,52.8S289.5,387.7,285.7,435.8z"/>
			<path class="st18" d="M247.5,341.3c0.2-2.4,0.3-4.7,0.3-6.9c0.3,0.1,0.7,0.1,1,0.2c0.4,0.1,0.7,0.1,1,0.2h0     c1.3,0.2,2.2,0.4,2.3,0.3c0.4,1.9,0.8,3.9,1.4,6c7.5-0.7,16-2.8,25-7.3c-0.8-5.9-2-11.2-3.8-14.7c-1.8-3.4-3.5-6.6-5-9.4     c-0.2-0.3-0.3-0.6-0.5-0.9c-4.4-7.8-7.4-12.7-7.4-12.7l-5.1,0.3l-0.8,0l-5.8,0.3h0l-0.4,0l-1.8,0.1v-4.4l-0.4-0.1l-0.1,0.2     l-14-1.8c0,0-2.9,4.3-6.1,11.3c-0.2,0.3-0.3,0.6-0.4,0.9c-1.7,3.8-3.4,8.2-4.8,13.1c-1.3,4.5-1.1,11.6-0.1,19.2     C226.5,337.7,235.6,341.2,247.5,341.3z"/>
		</g>
		<g>
			<path class="st19" d="M237.9,292.4c-0.1,0.1-3.7,8.7-11.2,10.6c0.1-0.3,0.3-0.6,0.4-0.9c6.7-2.1,10-9.9,10-10L237.9,292.4z"/>
		</g>
		<g>
			<path class="st19" d="M269.7,309.7c-8.4-1.8-12.7-10.6-13.8-13.3c-0.2-0.5-0.3-0.8-0.3-0.8l0.7-0.3c0,0,0.1,0.4,0.4,1     c1.2,2.8,5.1,10.5,12.5,12.4C269.3,309.1,269.5,309.4,269.7,309.7z"/>
		</g>
		<g>
			<path class="st19" d="M249.8,334.8c-0.3-0.1-0.6-0.1-1-0.2c-1.2-2.3-3.4-7.1-5.3-15.2c-2.6-11.6,3.3-24,3.4-24.1l0.7,0.3     c-0.1,0.1-5.9,12.3-3.3,23.6c0.1,0.5,0.2,0.9,0.3,1.4c0.1,0.3,0.1,0.5,0.2,0.7C246.6,328.8,248.8,333.1,249.8,334.8z"/>
		</g>
		<g>
			<path class="st19" d="M244.4,321.4c0,0-0.1,0-0.1,0l0-0.7c0.4,0,0.9-0.2,1.2-0.6c0.5-0.6,1.6-2.4,0.7-6.8     c-1.2-5.9,3.2-16.3,3.4-16.7l0.7,0.3c0,0.1-4.5,10.6-3.4,16.3c0.9,4.6-0.2,6.6-0.9,7.4C245.6,321.1,245,321.4,244.4,321.4z"/>
		</g>
		<path class="st9" d="M244.5,237.8c-0.1,0.2-0.1,0.4-0.1,0.6c3.3-1,9.6-2.2,19.6-1.1c6.8,0.7,10.4,1.9,12.2,2.9    c1.5-14-1.7-29.1-5.5-34c-4.7-6.1-14-4.6-14-4.6c-15.7-0.8-16.3,18.3-13.2,25.2C246.8,233.8,244.5,237.8,244.5,237.8z"/>
		<path class="st5" d="M261.7,296.1c0,0-14.7,5.2-28.5-5.3c0,0-2.6-52.8,2.3-56.4c2.1-1.6,6.4-0.3,10.4,1.6    c5.3,2.4,10.3,5.9,10.3,5.9s9.1-1.3,16.3-0.5c4.6,0.5,8.4,1.8,8.5,4.9C281.5,254.1,261.7,296.1,261.7,296.1z"/>
		<path class="st6" d="M272.9,241.6c-3.1-0.3-3.7,2-6.7,3.1c-3.1,1.1-6.8,2-8.2,2.1s-2.1,1.9-2.1,1.9s-0.5-2.3-1.3-2.5    c-0.7-0.2-7.3-6.8-8.6-10.2c5.3,2.4,10.3,5.9,10.3,5.9s9.1-1.3,16.3-0.5C272.8,241.6,272.9,241.6,272.9,241.6z"/>
		<g>
			<path class="st8" d="M232.7,442.5c0.4-2.9-0.6-4.9,0.1-6.3c1.2-2.1,2.4,0.6,2.4,0.6c0.1-3.3,5.6-3.3,6.1-1.8     c0.1,0.4,0.3,0.8,0.5,1.1c0.3-0.8,0.9-1.6,1.7-1.1c2.9,1.8-0.7,6.3,1.9,9.6c3.4,4.2,1.3,10.5,1.3,10.5h-16.2     C228.6,446.2,232.3,445.4,232.7,442.5z"/>
			<path class="st10" d="M242.7,441.5c0,0-3.8-2-8.9,0.7l1-1.8c0,0,3.4-2.1,7.5-0.5L242.7,441.5z"/>
			<path class="st10" d="M243.4,444.5c0,0-5.5-1.9-10.5,0.8l1-1.9c0,0,4.8-2.1,8.9-0.5L243.4,444.5z"/>
		</g>
		<g>
			<path class="st8" d="M288.7,442.5c-0.4-2.9,0.6-4.9-0.1-6.3c-1.2-2.1-2.4,0.6-2.4,0.6c-0.1-3.3-5.6-3.3-6.1-1.8     c-0.1,0.4-0.3,0.8-0.5,1.1c-0.3-0.8-0.9-1.6-1.7-1.1c-2.9,1.8,0.7,6.3-1.9,9.6c-3.4,4.2-1.3,10.5-1.3,10.5h16.2     C292.8,446.2,289.1,445.4,288.7,442.5z"/>
			<path class="st10" d="M278.6,441.5c0,0,3.8-2,8.9,0.7l-1-1.8c0,0-3.4-2.1-7.5-0.5L278.6,441.5z"/>
			<path class="st10" d="M278,444.5c0,0,5.5-1.9,10.5,0.8l-1-1.9c0,0-4.8-2.1-8.9-0.5L278,444.5z"/>
		</g>
		<path class="st6" d="M255.1,224.5c0,0,1.2,14.1-2.8,16.1c0,0,2.9,5.3,10.7,2.1c0,0-1.3-7.3,3.8-15.9    C270.3,221.1,255.1,224.5,255.1,224.5z"/>
		<path class="st5" d="M247.1,221.6c0,0-3.4-2.9-3.5,0.8c-0.1,4.3,3.9,5.7,4.5,4.3C248.8,225.3,247.1,221.6,247.1,221.6z"/>
		<path class="st5" d="M259.7,235.9c7-0.5,10.6-5.4,9.6-19.1c-0.5-7.1-4.5-11.2-12.3-10.6c-7.9,0.6-10.8,5.2-10.3,12.3    C247.8,233.3,252.5,236.5,259.7,235.9z"/>
		<path class="st5" d="M269.2,219.7c0,0,2.9-3.4,3.6,0.3c0.8,4.2-3,6.3-3.8,5C268.1,223.6,269.2,219.7,269.2,219.7z"/>
		<path class="st9" d="M259.5,208.5c0,0,2.6-0.8,3.7,3.1c1.9,6.9,3.2,18,7.7,23.5c3.2,4,5.2,2.4,5.2,2.4s0.9-4-0.5-7.9    c-1.4-4,0.4-18.2-4.7-23.4c-5.1-5.2-14-1.9-14-1.9s-4.3-2.6-8.5,0c-4.2,2.6-5.4,14-1.1,19.1c0,0-0.2-4.3,1.7-6    C250.7,215.7,251.8,206.4,259.5,208.5z"/>
		<g>
			<path class="st5" d="M226.6,152.2c-1.6,5.2,2.4,7.5-0.6,11.1c-1.8,2.2-4.6,0.4-4.6,0.4c-1.3-2.8-4.5-6.4-6.1-8     c-1.6-1.6-0.5-1.6-0.5-1.6c-0.2-0.1-0.3-0.3-0.5-0.4c-1.2-0.9-2.2-1.4-1.1-1.8c1.3-0.4,4.9,2,4.9,2c-4.2-4.7-5.9-4.2-4.7-4.7     c1.5-0.7,5.8,2.9,5.9,3c-2.1-3.3-3.9-4.3-2.7-4.4c1.2-0.1,5.5,5.1,7.1,7.1c0.4,0.4,0.6,0.7,0.6,0.7     C225.4,151.2,226.6,152.2,226.6,152.2z"/>
			<path class="st6" d="M223.8,154.8c0.4,0.4,0.6,0.7,0.6,0.7s-1.3,1.3-0.6,3.6C223.7,159.1,221.9,157.2,223.8,154.8z"/>
			<path class="st6" d="M218.5,156.7c-0.4-0.4-2.6-2.5-3.6-2.7c-0.2-0.1-0.3-0.3-0.5-0.4C215.3,152.9,218.1,156.2,218.5,156.7z"/>
		</g>
		<path class="st5" d="M226,163.2c0,0-0.6,34.3-2.4,41.1c0,0,6.2,21.5,15.6,29.3c0,0,1.5,5.8-6.6,17.3c0,0-15.7-28.1-18.2-44.1    l7-43.2L226,163.2z"/>
		<path class="st12" d="M246.6,236.3c0.8,2.8,1.2,12.8,10.7,17.9c9.5,5.1,19.6-2.4,22.3-10.5c0,0,1.1-1.7,4.9,2.5    c0,0,19.7,9.5,22.2,14.5s1,23.9-6.9,24.2c-7.9,0.3-17.4-8.5-19.9-2.7s-17.1,26.3-47.4,9.8c0,0-3.8-4.8-3.8-9s-1.9-32.3-1.9-32.3    s-11.2-3.2-8.4-29.6c0,0,7.7,4.3,7.5-9.8c0,0,6.3-2.9,8.5,8.9c1.4,7.9,9.2,13.7,9.2,13.7S245.4,232,246.6,236.3z"/>
		<path class="st5" d="M311.2,270.5c6.7-2.8,21.4-15,26.7-22l-3.2-2.9c0,0-17.3,11.8-24,13.9c-6.7,2.1-10.2,5.9-9.4,10.6    C302.2,274.8,309.8,271.1,311.2,270.5z"/>
		<g>
			<path class="st5" d="M343.3,238.6c-3.3,4.4-7.5,2.5-8.6,7c-0.7,2.8,2.3,3.9,2.3,3.9c3-0.5,7.8-0.2,10.1,0.2     c2.2,0.4,1.6-0.6,1.6-0.6c0.2,0.1,0.4,0.1,0.6,0.2c1.5,0.4,2.5,1,2.1-0.1c-0.4-1.3-4.5-2.7-4.5-2.7c6.3,0.7,6.9,2.3,6.6,1.1     c-0.4-1.6-5.7-3-5.9-3.1c3.8-0.2,5.8,0.6,5.2-0.4c-0.6-1-7.4-1.5-9.9-1.6c-0.6,0-0.9,0-0.9,0C344.8,239,343.3,238.6,343.3,238.6z     "/>
			<path class="st6" d="M342.8,242.4c-0.6,0-0.9,0-0.9,0s-0.3,1.8-2.6,2.6C339.4,245,342,245.3,342.8,242.4z"/>
			<path class="st6" d="M344.4,247.8c0.5,0.1,3.5,0.7,4.3,1.4c0.2,0.1,0.4,0.1,0.6,0.2C349.3,248.2,345.1,247.8,344.4,247.8z"/>
		</g>
		<path class="st12" d="M247.9,200.3l-5.2,8.8v2.5l-0.4,1.8c0,0-1.5,5.2-0.5,6.7c1,1.4,4.4-5.8,7.6-9.3c3.2-3.5,8-5.5,14.3-3.7    c6.3,1.8,9.7,6.4,11.7,11.6l-1.4-9.6l-4.2-6.5c0,0-3.3-0.2-3.3-1.2s-7.1-1.8-7.1-1.8L247.9,200.3z"/>
		<path class="st12" d="M235.9,242.4c0,0-9.8,10.9-15.1,1.8s-13.9-35.2-10.2-54.1c3.7-18.8,8.6-22.4,8.6-22.4s6-2.4,7.6,1.5    s3.6,18,5,32.3s2.7,20.1,4.1,23.8c1.4,3.8,3.8,6.5,3.4,6.5c-0.4,0-2.9,10.6-2.9,10.6H235.9z"/>
		<path class="st12" d="M335.4,251.4c-3.3-0.4-3.8-3.8-3.8-3.8v-0.1c-1.5-0.9-3.2-1.4-4.6-0.9c-4.3,1.5-20.4,11.5-28.7,7    c-8.4-4.5-14.1,9-14.1,9s-9.8,16.9,13.4,22c23.2,5.2,38.2-27.4,38.8-30.1C336.5,253.7,336.1,252.6,335.4,251.4    C335.4,251.4,335.4,251.4,335.4,251.4z"/>
		<path class="st12" d="M241.3,243l4.7-7.6c0,0,2-1.6,4,0c2,1.6,3.3,4.4,3.3,4.4s-0.6,4.3,4.4,4.5c5,0.2,5.3-3,5.3-3    s10.7-1.5,14.7,0.6c4,2.1,3.8,4.8,3.8,4.8l-6.7,13.3l-21.9,1.4l-10.4-6L241.3,243z"/>
		<path class="st16" d="M221.5,334c0,0,10.2,4.4,16.7,5.2c6.5,0.8,9.3,0.5,9.6,0.8c0.3,0.3,0.4,2.8,0,3c-0.4,0.2-8.6,0.2-15.5-1.7    s-10.3-3.1-10.9-3.4C220.8,337.6,221,334.2,221.5,334z"/>
		<path class="st16" d="M253,340c-0.3,0.4,0.4,2.5,0.7,2.8c0.3,0.3,7.4-0.8,14.1-2.8s10.4-3.6,10.8-4.1c0.4-0.5,0.1-3.2-0.4-3    s-10.6,3.7-13.4,4.4S253,340,253,340z"/>
	</g>
</g>
<g id="DESIGNED_BY_FREEPIK">
</g>
</svg>