<svg xmlns="http://www.w3.org/2000/svg" xmlns:xlink="http://www.w3.org/1999/xlink" version="1.1" id="Layer_2" x="0px" y="0px" viewBox="0 0 1080 1080" style="enable-background:new 0 0 1080 1080;" xml:space="preserve">
<style type="text/css">
	.st0{fill:#E3F4FF;}
	.st1{fill:none;stroke:#2A94F4;stroke-miterlimit:10;}
	.st2{fill:#F2F2F2;}
	.st3{fill:#FCD2B1;}
	.st4{fill:#0E538C;}
	.st5{fill:#2A94F4;}
	.st6{fill:#FFBE55;}
	.st7{fill:#0B4870;}
	.st8{fill:#FFE3CA;}
	.st9{fill:#F2A638;}
	.st10{fill:#B6E7FF;}
	.st11{fill:#85DDFF;}
	.st12{fill:#41AAF7;}
	.st13{fill:#CCE9FF;}
</style>
<circle class="st0" cx="377.3" cy="410.2" r="325.2"/>
<circle class="st1" cx="764.4" cy="624.4" r="163.9"/>
<path class="st2" d="M1029.1,1004.6H62.9c-5.2,0-9.5-4.3-9.5-9.5l91.1-148.9c0-5.2,4.3-9.5,9.5-9.5h809.6c5.2,0,9.5,4.3,9.5,9.5  l65.4,148.9C1038.6,1000.3,1034.3,1004.6,1029.1,1004.6z"/>
<g>
	<g>
		<path class="st3" d="M382.3,875.1c-0.1,2.9-4,3.7-5.2,1.1c-3.3-6.8-5.2-10.5-8.9-20.8c-6.7-18.5-13-39-14.6-48.2    c0,0,9.2,4.6,15.5-7.9c1,0.8,1.8,1.7,2.7,2.5c21.2,20.4,6.5,30.5,9.7,43.3C384,855.5,382.8,863.6,382.3,875.1z"/>
		<path class="st4" d="M382.3,875.1c-0.1,2.9-4,3.7-5.2,1.1c-3.3-6.8-5.2-10.5-8.9-20.8c1.7-18.1,0.5-39.6-5.6-44.9    c1.1-3.4,4.7-6.3,9.1-8.8c21.2,20.4,6.5,30.5,9.7,43.3C384,855.5,382.8,863.6,382.3,875.1z"/>
	</g>
	<path class="st5" d="M272.2,581.8c0,62.1,15.8,86.5,29.9,106.7c14.2,20.1,44.1,115.9,51.7,125.7c4.4,2.7,18-6,20.7-9.8   c-3.8-16.3-9.5-77.3-31.7-106.2c-6.9-39.2-18.4-87.9-11.3-99.7c7.1-11.8-22.8-42.9-22.8-42.9L272.2,581.8z"/>
	<g>
		<path class="st3" d="M362.6,680c-3,4.6-13.2,13.3-24.3,21.8c-12.7,9.6-26.5,18.8-32.2,20.8c-0.3-8.7,11.7-26.5,21.4-33    c3-2,5.2-5.1,5.7-8.7c0.5-3.6,1.4-5.9,4.9-7.3c5.3-2.1,16.4-5.7,16.4-5.7l3.5,5.4L362.6,680z"/>
		<path class="st4" d="M358.2,673.2c-8.9,2.6-15.8,16.1-19.9,28.5c-12.7,9.6-26.5,18.8-32.2,20.8c-0.3-8.7,11.7-26.5,21.4-33    c3-2,5.2-5.1,5.7-8.7c0.5-3.6,1.4-5.9,4.9-7.3c5.3-2.1,16.4-5.7,16.4-5.7L358.2,673.2z"/>
	</g>
	<path class="st5" d="M347,539.7c43.2,12,118,39.7,114.8,48.1c-3.2,8.4-99.4,105.1-99.4,105.1l-9.5-24.5c0,0,29.1-58.7,51.6-63.2   c-65.8-6.4-71,1.3-78.1-13.5c-5.8-14.8-21.3-34.2-21.3-34.2L347,539.7z"/>
	<path class="st3" d="M497.3,519.6l29.5,2.5c0,0,36.6-10.2,40.2-12.6c-0.8,3.9-14.2,10.1-14.2,10.1h15.7c0,0-11,18.2-14.2,19.8   c-3.1,1.6-27.9-6.3-27.9-6.3l-34.6,5.4L497.3,519.6z"/>
	<path class="st3" d="M314.8,280l17-35c0,0-30-38-30-44c9,2,30,17,30,16c-2-5-6-14-5-18c5,5,18,25,18,31s-8,55-8,55L314.8,280z"/>
	<path class="st6" d="M322.8,429c-1-8-2-122,23-155c-14-6-39-6-40,0s-18,84-15,114s-15,48-20,62s15,30,8,54c-7,24-31,58-18,97   c29,7,50-47,76-50s31-2,38-2c-23-18-24-18-21-26s7-26,17-33s35-27,35-27L322.8,429z"/>
	<g>
		<path class="st7" d="M336.5,375.8c7.3,3.4,11.9,11,14.2,18.7s2.7,15.9,4,23.8c2.1,12.2,6.4,23.8,10.7,35.3    c3.6,9.7,7.3,19.6,13.1,28.2c5.8,8.6,13.9,16.1,23.8,19.2s21.8,0.8,28.6-7c5.2-5.9,7.1-14.3,12.5-20c9.3-9.8,24.9-8.3,38.1-11.3    c10.7-2.4,20.9-8.7,25.9-18.4c4.9-9.8,3.2-23.1-5.6-29.7c-4.3-3.2-9.6-4.5-14.5-6.8s-9.7-5.9-10.6-11.1c-1.2-6.3,3.5-12,6.8-17.4    c5-8,7.7-17.9,5.3-27.1c-2.4-9.1-10.9-16.9-20.4-16.6c-8.1,0.3-14.8,5.9-21.6,10.2c-9.1,5.7-20.1,9.4-30.6,7.1    c-19.9-4.4-30.2-27.8-49.3-34.9c-14.7-5.4-32.8,1.4-40.4,15.1c-7.6,13.7-3.6,32.6,8.8,42.2L336.5,375.8z"/>
	</g>
	<path class="st3" d="M339.8,406c-5,8-8,21-17,23c-3,6,39,51,83,34c-18-9-45.4-20.8-47.7-30.9s-5.5-25.9-5.5-25.9L339.8,406z"/>
	<path class="st8" d="M379.8,381.6c0,18.8-21,36.5-33.6,36.5c-12.7,0-18.9-14-18.9-32.8c0-18.8,16.9-37.7,29.5-37.7   C369.5,347.5,379.8,362.8,379.8,381.6z"/>
	<g>
		<path class="st7" d="M339.9,326.9c-5.7,4.1-7.3,12.1-5.5,18.9c1.8,6.7,6.4,12.4,11.2,17.4s10.2,9.7,14,15.5    c3.7,5.6,5.8,12,9.1,17.9c3.3,5.8,8.1,11.3,14.6,12.9c3.1,0.8,6.8,0.4,9-1.9c1.5-1.5,2.1-3.7,2.5-5.8c3.4-15.6,1-32.4-6.6-46.4    s-20.5-25.1-35.5-30.6L339.9,326.9z"/>
	</g>
	
		<ellipse transform="matrix(0.8167 -0.5771 0.5771 0.8167 -161.3594 289.6718)" class="st8" cx="375.3" cy="398.8" rx="9.4" ry="6.2"/>
	<circle class="st5" cx="371.6" cy="405.8" r="6.6"/>
	<path class="st6" d="M405.8,463c32.7,23.4,65.4,53.9,108.5,52.9c-5,11.8-11.6,22.1-11.3,25.3c-13.6-2.2-106.7-30-136.2-49.4   c-10.5-29.1,0.9-27.6,0.9-27.6C372.8,465.2,385.7,467.6,405.8,463z"/>
</g>
<g>
	<path class="st4" d="M826.5,852.2c0,0,4.2,27.1,6.7,28.7s25,7.5,35.3,16.5c-9.7,9-26.6,12.1-28.1,12.1c-1.5,0-26.1,2-29.7,0   c-3.6-2-22-35.8-22-40.4s28.7-27.6,28.7-27.6L826.5,852.2z"/>
	<path class="st9" d="M790.1,624.4c48.6,20.3,120.2,85.3,111.1,107.5c-9.1,22.2-71.6,116.1-65.9,130.9c-5.8,7.4-31.3-25.5-31.3-25.5   s35.4-105.5,42-114.4c-14-3.2-87-44.1-81.4-63.2S790.1,624.4,790.1,624.4z"/>
	<path class="st4" d="M567.5,920.7c-15.6,9.9-34.6,14.1-38.7,25.6c-4.1,11.5-14.8,33.7-9.9,38.7c12.3,2.5,56.8-37,60.1-49.4   C582.3,923.1,567.5,920.7,567.5,920.7z"/>
	<path class="st6" d="M687.6,662.2c-21.3,37.5-46.7,127.8-58.8,147.1c-18.3,19.3-48.3,75.1-71.8,102.5   c-10.3,35.5,29.5,34.5,29.5,34.5s68.4-119.7,75.1-123.7S770.8,692.3,783,686.2c6.9-9.7,16.7-20.3,15.7-38.5   S687.6,662.2,687.6,662.2z"/>
	<path class="st3" d="M722.9,372c-7.5-9.5-21.4-21.8-24.2-21.8s-82.4,20.2-95,33.7c-12.7,13.5-21,27.7-15.4,33.7   c5.5,5.9,25.7,0,25.7,0s6.7-14.7,4-16.6s-7-5.1-7-5.1s50.5-20.6,98.8-8.3C719.3,388.2,722.9,372,722.9,372z"/>
	<path class="st3" d="M623.7,611.2c0,0-50.7,35.1-52.3,34.7c-1.6-0.4-20.1,0-20.1,0s-10.6,17.7-10.2,19.3c0.4,1.6,26,9.8,31.5,5.5   c5.5-4.3,7.1-11.4,7.1-11.4s57-22.1,60.6-30.4C643.8,620.6,623.7,611.2,623.7,611.2z"/>
	<path class="st5" d="M707.7,481.7c11.4-20.3,19.7-73.5-6.5-93.8c2.5-14.4,17.3-22.3,17.3-22.3s75.2,48.1,68.3,155.1   c17.8,38.4,68.6,113.4,83.7,116.6c-39.8,8.2-51.3,4.1-84.6,27.4c-33.3,23.3-100.1,72.7-114,28.8c4.7-39.4,20.8-85,13.3-100.8   c-7.5,14.2-39.3,44.1-45.9,45.8s-28.3-25-28.3-25s40.9-38.3,40-52.4c-0.8-14.2,5.3-53.3,25.5-51.6c20.2,1.7,20.9-7,20.9-7   L707.7,481.7z"/>
	<polygon class="st3" points="702.5,469.6 715.7,481.7 715.5,498 739.7,544.8 705,509 696.2,508.3 694.2,494.8  "/>
	<g>
		<path class="st7" d="M697.4,465.6c3.2-2.6,8.2,5.8,10.3,2.3c3.3-5.5,3.5-23.3,4.3-29.7c0.9-6.4-0.5-13.3-4.8-18.1    c-4.9-5.5-12.8-7.5-20.2-6.9c-7.3,0.6-14.3,3.3-21.2,5.9c-6.9,2.6-14,5.1-21.4,5.1c-2.7,0-5.4-0.3-8.1,0s-5.4,1.5-6.9,3.8    c-1.7,2.7-1.2,6.1-0.1,9.1c1,3,2.6,5.8,3,8.9c0.5,3.9-0.9,8-3.5,11.1c-2.5,3.1-6,5.3-9.7,6.8c-3.5,1.4-8,3.1-8.2,6.9    c-0.2,3.1,2.8,5.3,5.5,6.7c13.8,6.8,31.3,5.2,43.6-4C660.1,473.5,685,475.5,697.4,465.6z"/>
	</g>
	<path class="st8" d="M701,458.4c11,14.8,7.5,31.8-3.8,40.1c-11.2,8.3-29.2,3-40.2-11.8s-19.7-21.7,0.5-41.9   C667.4,434.9,690,443.6,701,458.4z"/>
	<g>
		<path class="st7" d="M644.2,452.8c3.1-4.8,6.5-9.9,11.5-12.6c4.8-2.6,10.5-2.8,15.9-2.5c6.6,0.4,13.2,1.4,19.6,3.1    c4.9,1.3,10.2,3.4,12.3,8.1c2.4,5.4-1.1,12.2-6.5,14.7c-5.4,2.5-11.8,1.7-17.3-0.5c-2.4-1-4.7-2.2-7.2-2.7    c-2.5-0.5-5.4-0.1-7.2,1.8c-1.3,1.3-1.8,3.1-2.8,4.7c-2.4,3.7-7.2,5.3-11.6,4.7c-4.4-0.6-8.3-3-11.7-5.8L644.2,452.8z"/>
	</g>
	
		<ellipse transform="matrix(0.8941 -0.4479 0.4479 0.8941 -130.9332 362.5729)" class="st8" cx="701.2" cy="458.1" rx="5" ry="8.5"/>
</g>
<g>
	<path class="st10" d="M141.4,972.1c-23,0-32.6-18.3-36.5-37.8c-4.3-21.9-1.1-45.3-1.1-45.3H179c0,0,0.1,0.9,0.3,2.5   C180.7,905.3,185.2,972.1,141.4,972.1z"/>
	<path class="st11" d="M179,889c0,1.6-16.8,3-37.6,3c-20.8,0-37.6-1.3-37.6-3c0-1.6,16.8-3,37.6-3C162.1,886,179,887.3,179,889z"/>
	<path class="st5" d="M243.2,680.4c0,0-39.7,60.4-63.5,97.2s-30,44.5-32.9,56.4c-2.8,11.9-5.4,55.8-5.4,55.8h-1.8   c0,0,0.6-37.3,2.8-49.8c2.1-12.1-0.1-16.5-1.8-29.2c-1.7-12.8-4-33.2,8.9-47.3c12.9-14.2,9.5-28.1,14-37.4   c4.5-9.4,39.7-20.7,44.2-30.3C212.3,686.1,232.2,680.2,243.2,680.4z"/>
	<path class="st12" d="M243.2,680.4c0,0-12.5,14.2-21,19c-8.5,4.8-12.5,0.6-19,12.2c-6.5,11.6-6.8,16.7-12.7,22.7   c-6,5.9-13,6.2-13.6,19.3c-0.6,13,2.8,24.1,2.8,24.1S240.7,683.6,243.2,680.4z"/>
	<path class="st5" d="M144.6,889.8h1.8c0,0,0.5-12.1,5.3-17.9c3.1-3.8,16.2-8.1,29.2-13.2c7.1-2.8,14.3-5.9,19.6-9.3   c15.1-9.6,29.5-40.5,30.7-46c0.4-1.9,0.6-3.1,0.6-3.9v0c0-1.5-0.8-1.7-2-3.2c-0.6-0.7-2.4-0.5-4.7,0.2c-6.5,2-12,6.4-15.4,12.3   c-3.1,5.4-8.2,12.3-14.3,13.9c-10.7,2.8-9.8,4.6-13.7,15.4c-3.9,10.8-13.8,12.6-26.2,25.4C143,876.3,144.6,889.8,144.6,889.8z"/>
	<path class="st12" d="M181,858.7c7.1-2.8,14.3-5.9,19.6-9.3c15.1-9.6,29.5-40.5,30.7-46c0.4-1.9,0.6-3.1,0.6-3.9   c0,0.4-0.7,5.3-8.6,8.5c-8.2,3.4-9.8,3.4-10.8,8.5c-1.1,5.1-2,10.7-6.2,11.7c-4.3,1.1-6.9-3.7-10.3,4.1c-3.4,7.8-5,10.5-8.1,11.5   c-3.1,1.1-5.5-0.5-6.1,5.5C181.3,853,181.1,856.5,181,858.7z"/>
	<path class="st5" d="M131.6,889.8h-2.1c0,0-4.1-74.7-9.8-81.7c-3.7-4.5-15.7-12.5-31.1-18.6c-8.5-3.4-16.9-7-23.2-11   c-17.9-11.4-34.9-47.9-36.4-54.5c-0.5-2.3-0.7-3.6-0.7-4.6v0c0-1.8,0.9-2,2.4-3.8c0.7-0.9,2.9-0.6,5.6,0.2   c7.7,2.4,14.2,7.6,18.2,14.6c3.7,6.5,9.7,14.5,17,16.5c12.6,3.4,11.6,5.5,16.2,18.3c4.6,12.8,16.4,14.9,31.1,30.1   C133.5,810.5,131.6,889.8,131.6,889.8z"/>
	<path class="st12" d="M88.6,789.6c-8.5-3.4-16.9-7-23.2-11c-17.9-11.4-34.9-47.9-36.4-54.5c-0.5-2.3-0.7-3.6-0.7-4.6   c0.1,0.4,0.9,6.2,10.2,10.1c9.7,4,11.6,4,12.8,10.1c1.3,6.1,2.3,12.6,7.4,13.9c5,1.3,8.2-4.4,12.2,4.8c4,9.2,5.9,12.4,9.6,13.7   c3.7,1.3,6.5-0.6,7.3,6.5C88.2,782.9,88.5,787,88.6,789.6z"/>
	<g>
		<path class="st13" d="M141.4,972.1c-23,0-32.6-18.3-36.5-37.8c22.5-8.5,50.8-22.2,74.4-42.8C180.7,905.3,185.2,972.1,141.4,972.1z    "/>
	</g>
</g>
<g>
	<path class="st10" d="M967.6,970.7c16.1,0,22.8-12.8,25.5-26.4c3-15.3,0.8-31.7,0.8-31.7h-52.6c0,0-0.1,0.6-0.2,1.7   C940.1,924,936.9,970.7,967.6,970.7z"/>
	<path class="st11" d="M941.3,912.6c0,1.1,11.8,2.1,26.3,2.1c14.5,0,26.3-0.9,26.3-2.1c0-1.1-11.8-2.1-26.3-2.1   C953,910.5,941.3,911.4,941.3,912.6z"/>
	<path class="st5" d="M1033.1,766.7c0,0-27.7,42.2-44.4,68s-21,31.1-23,39.4c-2,8.3-3.8,39-3.8,39h-2.2c0,0-1.4-26,1.2-34.5   s1.6-11.9,0.4-20.8c-1.2-8.9-2.8-23.2,6.2-33.1c9-9.9,6.6-19.6,9.8-26.2c3.2-6.5,27.7-14.5,30.9-21.2   C1011.5,770.7,1025.4,766.5,1033.1,766.7z"/>
	<path class="st12" d="M1033.1,766.7c0,0-8.7,9.9-14.7,13.3c-5.9,3.4-8.7,0.4-13.3,8.5c-4.6,8.1-4.7,11.7-8.9,15.9   c-4.2,4.2-9.1,4.4-9.5,13.5c-0.4,9.1,2,16.8,2,16.8S1031.3,768.9,1033.1,766.7z"/>
	<path class="st5" d="M968.5,913.2h2c0,0,0.6-13.5,5.9-20c3.4-4.2,18.1-9,32.6-14.8c8-3.2,15.9-6.6,21.9-10.4   c16.8-10.7,32.9-45.2,34.3-51.3c0.5-2.1,0.7-3.4,0.7-4.3v0c0-1.7-0.9-1.9-2.3-3.6c-0.7-0.8-2.7-0.5-5.2,0.2   c-7.3,2.2-13.4,7.2-17.2,13.8c-3.5,6.1-9.1,13.7-16,15.5c-11.9,3.2-10.9,5.1-15.3,17.2c-4.4,12.1-15.4,14.1-29.3,28.3   C966.7,898.1,968.5,913.2,968.5,913.2z"/>
	<path class="st12" d="M1009,878.4c8-3.2,15.9-6.6,21.9-10.4c16.8-10.7,32.9-45.2,34.3-51.3c0.5-2.1,0.7-3.4,0.7-4.3   c0,0.4-0.8,5.9-9.6,9.5c-9.1,3.8-10.9,3.8-12.1,9.5c-1.2,5.7-2.2,11.9-6.9,13.1c-4.8,1.2-7.7-4.2-11.5,4.6   c-3.8,8.7-5.6,11.7-9,12.9c-3.5,1.2-6.1-0.6-6.9,6.1C1009.4,872.1,1009.1,876,1009,878.4z"/>
	<g>
		<path class="st13" d="M967.6,970.7c16.1,0,22.8-12.8,25.5-26.4c-15.7-6-35.6-15.5-52-30C940.1,924,936.9,970.7,967.6,970.7z"/>
	</g>
</g>
</svg>