<svg xmlns="http://www.w3.org/2000/svg" xmlns:xlink="http://www.w3.org/1999/xlink" version="1.1" id="Layer_2" x="0px" y="0px" viewBox="0 0 1080 1080" style="enable-background:new 0 0 1080 1080;" xml:space="preserve">
<style type="text/css">
	.st0{fill:#F7F7F7;}
	.st1{fill:#F2F2F2;}
	.st2{fill:none;stroke:#B6E7FF;stroke-miterlimit:10;}
	.st3{fill:#B6E7FF;}
	.st4{fill:#0B4870;}
	.st5{fill:#218AD8;}
	.st6{fill:#2A94F4;}
	.st7{fill:#F9C4A0;}
	.st8{fill:#E08F00;}
	.st9{fill:#FFD1AE;}
	.st10{fill:#F6A400;}
	.st11{fill:#FFB636;}
</style>
<g>
	<path class="st0" d="M805.1,215c25.9,11,51.6,24.5,69.7,45.6s27.2,51.5,16.3,76.9c-14.5,33.9-60.5,53.7-60.7,90.5   c-0.2,26.3,24.8,46.4,50,56s53.1,13,76,27c34.6,21.1,50.8,62,57.4,101.2c6.9,40.7,4.1,87.1-25.5,116.6   c-36.8,36.7-97.6,32.6-149.6,24.7c-69.5-10.4-138.6-22.7-207.7-35c-151.6-26.9-303.1-53.8-454.7-80.7c-16.3-2.9-33.2-6-46.4-15.7   c-26.2-19.2-28.4-58.8-13.2-87.1c15.2-28.3,43.4-47.5,71.4-64.1s57.6-32.4,78.5-56.9c21-24.6,31.4-60.9,15.5-88.9   c-13.4-23.7-42.3-36.3-54.9-60.5c-16.6-31.8,2.5-72.4,32.6-92.7C290.1,151.5,668.3,156.7,805.1,215z"/>
</g>
<path class="st1" d="M1021,994.7H59c-6.6,0-12-5.4-12-12V919c0-6.6,5.4-12,12-12H1021c6.6,0,12,5.4,12,12v63.8  C1033,989.3,1027.6,994.7,1021,994.7z"/>
<g>
	<polygon class="st2" points="705.7,251.7 867.4,213.1 841.6,182.3 925,156.2 902.6,130 1004.5,80.2 849.7,110 875.3,140.5    794.9,164.6 822,196.8  "/>
	<polygon class="st3" points="704.1,241.6 865.8,203 840,172.2 923.4,146.1 901,119.9 1003,70.1 848.1,99.9 873.7,130.4    793.4,154.5 820.4,186.7  "/>
</g>
<g>
	<polygon class="st2" points="711.5,556.6 813.1,688.2 830.5,652.1 888.6,717.4 903.3,686.2 990.6,758.7 899.8,629.8 882.6,665.6    827.6,602.2 809.3,640.1  "/>
	<polygon class="st3" points="720.1,551 821.7,682.7 839.1,646.5 897.2,711.8 911.9,680.6 999.1,753.2 908.4,624.2 891.1,660.1    836.2,596.7 817.9,634.5  "/>
</g>
<g>
	<polygon class="st4" points="797,870 863,836 808,925 771.1,885  "/>
	<path class="st4" d="M267,512c-9-7-24-32-24-32l-81,63l85-9L267,512z"/>
	<path class="st5" d="M541.4,561.9C522,598,433,722,421,722c-23-4-181-188-181-188c11-7,27-22,27-22s147,109,145,143   c8-62,39-122,65-128S541.4,561.9,541.4,561.9z"/>
	<path class="st6" d="M562,540c18,57,230,273,238,330c-14,15-23,20-23,20s-87-70-122-167c-89.7-42.7-149.3-91-174-135   c-10-17.8-13-33-3-48C527,527,562,540,562,540z"/>
	<path class="st7" d="M362.8,330.8C344,329,324,349,325,363c17,0,33-7,33-7c-1,3-1,10,3,14c0-5,8-18,9-28   C370,333,362.8,330.8,362.8,330.8z"/>
	<path class="st7" d="M832,417c6-7,9-29,15-34c3,6,0,15,0,15s11-17,28-18c6,22-0.8,49.7-34,54C833.7,425.7,832,417,832,417z"/>
	<path class="st8" d="M562,379c-41-46-101-91-201-51c6,9,9,14,9,14s132-37,148,70C536,421,562,379,562,379z"/>
	<path class="st7" d="M614,366c-13,20-18,27-18,27l-27-17l33-23L614,366z"/>
	<ellipse class="st4" cx="596.5" cy="312" rx="50.5" ry="47"/>
	<path class="st9" d="M655,335c0,24.3-4.9,44-24,44s-45-19.7-45-44s15.4-44,34.5-44S655,310.7,655,335z"/>
	<path class="st4" d="M660,273c21,46-60,53-77,45s-32-9-32-9l18-23l23-7C592,279,631,279,660,273z"/>
	<g>
		<path class="st4" d="M574,278.6c-8.6-22-34.8-35.5-57.6-29.6c-9.6,2.4-18.6,7.8-28.5,7.8c-16.6-0.1-28.8-14.7-40-26.9    c-13-14.1-28.2-26.7-46.2-33.2c-18-6.5-39.2-6.2-55.3,4.1c-16.1,10.3-25.5,31.7-19,49.7c5.8,16,22,26,38.2,31.3    c22.8,7.5,47.8,8.3,70.9,2.1c15.6-4.1,31.1-11.4,47-9c11.9,1.8,22.3,8.7,32.7,14.9c10.4,6.1,22,11.8,34,10.5    c12-1.3,23.6-12.3,21.2-24.2"/>
	</g>
	<path class="st10" d="M577.1,370.4C548,367,503,430,470,433s-150,19-165,28c21,11,94,30,93,64c-0.6,20.2,174,42,182,48   c-17-39,27.2-163.5,19.6-185.2C588.4,372.2,577.1,370.4,577.1,370.4z"/>
	<path class="st11" d="M586,386.7c-17-10.7-66,4.3-35,41.3s189,103,292,8c-1-10-11-22-11-22S747,507,586,386.7z"/>
</g>
<g>
	<path class="st11" d="M229.3,766.6c132.2-7.1,176.4-1.9,259.2,28c32.7,11.8,62.5,35.4,97.2,35.1c17-0.2,34.2-6.2,50.8-2.2   c25.9,6.3,40.2,34.3,63.3,47.5c20.5,11.7,45.6,10.5,68.9,14.2c23.3,3.7,49.1,16.3,53.2,39.6C821.9,928.9,420,784.8,229.3,766.6z"/>
</g>
<g>
	<path class="st11" d="M471.9,927.7c2.7-16.7-16.7-28.9-33.6-29.4s-33.9,5.5-50.5,2.4c-14.1-2.7-26.1-11.6-39-18   c-62-30.8-126.8-23.4-203.7-29.8C145.2,852.9,444.1,910.9,471.9,927.7z"/>
</g>
<g>
	<path class="st11" d="M289.4,719.3c-16.3-6.9-32.6-13.7-49-19.8c-16.4-6.1-33-11.7-49.8-16.8c-16.8-5-33.7-9.4-50.9-13.3   c-17.1-3.9-34.4-7.2-51.8-10.4c17.7-0.1,35.5,1.5,53,4.2c17.5,2.8,34.9,6.7,52,11.8c17,5.1,33.7,11.3,49.9,18.6   C258.9,701.1,274.6,709.5,289.4,719.3z"/>
</g>
<g>
	<path class="st11" d="M986.7,853.1c-15.3-6.1-30.3-12.6-45.4-18.8c-15.1-6.3-30.1-12.6-45.2-18.8c-15.1-6.2-30.2-12.2-45.4-18.2   c-15.2-6.1-30.4-12-45.6-18.3c16.2,3.2,32,7.5,47.7,12.4c15.7,4.9,31.1,10.5,46.3,16.8c15.2,6.2,30.2,13,44.8,20.5   C958.6,836.1,973,844.1,986.7,853.1z"/>
</g>
</svg>